<?xml version="1.0" encoding="UTF-8" standalone="no"?>
<!-- Created with Inkscape (http://www.inkscape.org/) -->

<svg
   xmlns:dc="http://purl.org/dc/elements/1.1/"
   xmlns:cc="http://creativecommons.org/ns#"
   xmlns:rdf="http://www.w3.org/1999/02/22-rdf-syntax-ns#"
   xmlns:svg="http://www.w3.org/2000/svg"
   xmlns="http://www.w3.org/2000/svg"
   xmlns:sodipodi="http://sodipodi.sourceforge.net/DTD/sodipodi-0.dtd"
   xmlns:inkscape="http://www.inkscape.org/namespaces/inkscape"
   width="113.39022mm"
   height="113.39022mm"
   viewBox="0 0 401.7764 401.77637"
   id="svg2"
   version="1.1"
   inkscape:version="0.91 r13725"
   sodipodi:docname="logo.svg">
  <defs
     id="defs4">
    <clipPath
       clipPathUnits="userSpaceOnUse"
       id="clipPath3352">
      <path
         d="M 0,800 800,800 800,0 0,0 0,800 Z"
         id="path3354"
         inkscape:connector-curvature="0" />
    </clipPath>
    <clipPath
       clipPathUnits="userSpaceOnUse"
       id="clipPath3360">
      <path
         d="m 272.077,40.123 260.621,0 0,-25.9003 -260.621,0 0,25.9003 z"
         id="path3362"
         inkscape:connector-curvature="0" />
    </clipPath>
    <clipPath
       clipPathUnits="userSpaceOnUse"
       id="clipPath3476">
      <path
         d="m 14.4258,792.289 777.1482,0 0,-742.3007 -777.1482,0 0,742.3007 z"
         id="path3478"
         inkscape:connector-curvature="0" />
    </clipPath>
    <clipPath
       clipPathUnits="userSpaceOnUse"
       id="clipPath3580">
      <path
         d="m 558.285,461.186 115.887,0 0,-133.665 -115.887,0 0,133.665 z"
         id="path3582"
         inkscape:connector-curvature="0" />
    </clipPath>
    <clipPath
       clipPathUnits="userSpaceOnUse"
       id="clipPath3648">
      <path
         d="m 525.979,553.937 63.715,0 0,-75.231 -63.715,0 0,75.231 z"
         id="path3650"
         inkscape:connector-curvature="0" />
    </clipPath>
    <clipPath
       clipPathUnits="userSpaceOnUse"
       id="clipPath3760">
      <path
         d="m 533.834,608.68 31.859,0 0,-31.816 -31.859,0 0,31.816 z"
         id="path3762"
         inkscape:connector-curvature="0" />
    </clipPath>
    <clipPath
       clipPathUnits="userSpaceOnUse"
       id="clipPath3788">
      <path
         d="m 564.205,625.4 23.456,0 0,-25.32 -23.456,0 0,25.32 z"
         id="path3790"
         inkscape:connector-curvature="0" />
    </clipPath>
    <clipPath
       clipPathUnits="userSpaceOnUse"
       id="clipPath4130">
      <path
         d="m 184.661,511.276 43.239,0 0,-136.762 -43.239,0 0,136.762 z"
         id="path4132"
         inkscape:connector-curvature="0" />
    </clipPath>
    <clipPath
       clipPathUnits="userSpaceOnUse"
       id="clipPath4390">
      <path
         d="m 715.406,414.904 9.354,0 0,-9.71 -9.354,0 0,9.71 z"
         id="path4392"
         inkscape:connector-curvature="0" />
    </clipPath>
    <clipPath
       clipPathUnits="userSpaceOnUse"
       id="clipPath4426">
      <path
         d="m 741.214,410.203 13.498,0 0,-13.06 -13.498,0 0,13.06 z"
         id="path4428"
         inkscape:connector-curvature="0" />
    </clipPath>
  </defs>
  <sodipodi:namedview
     id="base"
     pagecolor="#ffffff"
     bordercolor="#666666"
     borderopacity="1.0"
     inkscape:pageopacity="0.0"
     inkscape:pageshadow="2"
     inkscape:zoom="1.4"
     inkscape:cx="108.74901"
     inkscape:cy="225.88195"
     inkscape:document-units="px"
     inkscape:current-layer="layer1"
     showgrid="false"
     fit-margin-top="0"
     fit-margin-left="0"
     fit-margin-right="0"
     fit-margin-bottom="0"
     inkscape:window-width="1920"
     inkscape:window-height="1017"
     inkscape:window-x="1358"
     inkscape:window-y="-8"
     inkscape:window-maximized="1" />
  <metadata
     id="metadata7">
    <rdf:RDF>
      <cc:Work
         rdf:about="">
        <dc:format>image/svg+xml</dc:format>
        <dc:type
           rdf:resource="http://purl.org/dc/dcmitype/StillImage" />
        <dc:title></dc:title>
      </cc:Work>
    </rdf:RDF>
  </metadata>
  <g
     inkscape:label="Layer 1"
     inkscape:groupmode="layer"
     id="layer1"
     transform="translate(-107.9493,-296.25949)">
    <rect
       style="fill:none;stroke:none;stroke-width:3.00000024;stroke-miterlimit:4;stroke-dasharray:none"
       id="rect3566"
       width="398.28229"
       height="398.28229"
       x="109.69615"
       y="298.00653" />
    <g
       id="g3536"
       transform="translate(14.551576,-0.92882044)">
      <path
         inkscape:export-ydpi="90"
         inkscape:export-xdpi="90"
         d="m 446.55072,546.69843 c 0,84.09375 -68.1725,152.26625 -152.265,152.26625 -84.09375,0 -152.265,-68.1725 -152.265,-152.26625 0,-84.09375 68.17125,-152.265 152.265,-152.265 84.0925,0 152.265,68.17125 152.265,152.265"
         style="fill:#38353b;fill-opacity:1;fill-rule:nonzero;stroke:none"
         id="path4172"
         inkscape:connector-curvature="0" />
      <path
         inkscape:export-ydpi="90"
         inkscape:export-xdpi="90"
         d="m 176.15522,611.14118 238.0625,0 c 0,0 -109.155,152.81875 -238.0625,0"
         style="fill:#ffffff;fill-opacity:1;fill-rule:nonzero;stroke:none"
         id="path4176"
         inkscape:connector-curvature="0" />
      <path
         inkscape:export-ydpi="90"
         inkscape:export-xdpi="90"
         d="m 193.82859,620.49793 c 0,0 84.83125,115.9125 208.95375,0 0,0 -110.19375,98.29375 -208.95375,0"
         style="fill:#00aeb3;fill-opacity:1;fill-rule:nonzero;stroke:none"
         id="path4180"
         inkscape:connector-curvature="0" />
      <path
         inkscape:export-ydpi="90"
         inkscape:export-xdpi="90"
         d="m 345.60722,436.69906 c 0,6.2 -5.02625,11.2275 -11.2275,11.2275 l -79.425,0 c -6.2,0 -11.2275,-5.0275 -11.2275,-11.2275 l 0,-109.57125 c 0,-6.20125 5.0275,-11.2275 11.2275,-11.2275 l 79.425,0 c 6.20125,0 11.2275,5.02625 11.2275,11.2275 l 0,109.57125 z"
         style="fill:#38353b;fill-opacity:1;fill-rule:nonzero;stroke:none"
         id="path4184"
         inkscape:connector-curvature="0" />
      <path
         inkscape:export-ydpi="90"
         inkscape:export-xdpi="90"
         d="m 364.31934,317.14831 c 0,6.2 -5.02625,11.2275 -11.2275,11.2275 l -117.88875,0 c -6.20125,0 -11.2275,-5.0275 -11.2275,-11.2275 l 0,-8.7325 c 0,-6.20125 5.02625,-11.2275 11.2275,-11.2275 l 117.88875,0 c 6.20125,0 11.2275,5.02625 11.2275,11.2275 l 0,8.7325 z"
         style="fill:#38353b;fill-opacity:1;fill-rule:nonzero;stroke:none"
         id="path4188"
         inkscape:connector-curvature="0" />
      <path
         inkscape:export-ydpi="90"
         inkscape:export-xdpi="90"
         d="m 176.15522,611.17418 c 0,0 21.18,-4.76375 21.18,-15.10125 0,0 1.2175,16.42 13.98875,16.42"
         style="fill:#ffffff;fill-opacity:1;fill-rule:nonzero;stroke:none"
         id="path4192"
         inkscape:connector-curvature="0" />
      <path
         inkscape:export-ydpi="90"
         inkscape:export-xdpi="90"
         d="m 196.83147,611.17418 c 0,0 21.18125,-4.76375 21.18125,-15.10125 0,0 1.21625,16.42 13.9875,16.42"
         style="fill:#ffffff;fill-opacity:1;fill-rule:nonzero;stroke:none"
         id="path4196"
         inkscape:connector-curvature="0" />
      <path
         inkscape:export-ydpi="90"
         inkscape:export-xdpi="90"
         d="m 217.20259,611.17418 c 0,0 21.18125,-4.76375 21.18125,-15.10125 0,0 1.21625,16.42 13.9875,16.42"
         style="fill:#ffffff;fill-opacity:1;fill-rule:nonzero;stroke:none"
         id="path4200"
         inkscape:connector-curvature="0" />
      <path
         inkscape:export-ydpi="90"
         inkscape:export-xdpi="90"
         d="m 236.96822,611.17418 c 0,0 21.18,-4.76375 21.18,-15.10125 0,0 1.2175,16.42 13.9875,16.42"
         style="fill:#ffffff;fill-opacity:1;fill-rule:nonzero;stroke:none"
         id="path4204"
         inkscape:connector-curvature="0" />
      <path
         inkscape:export-ydpi="90"
         inkscape:export-xdpi="90"
         d="m 257.64334,611.17418 c 0,0 21.18125,-4.76375 21.18125,-15.10125 0,0 1.2175,16.42 13.9875,16.42"
         style="fill:#ffffff;fill-opacity:1;fill-rule:nonzero;stroke:none"
         id="path4208"
         inkscape:connector-curvature="0" />
      <path
         inkscape:export-ydpi="90"
         inkscape:export-xdpi="90"
         d="m 278.01559,611.17418 c 0,0 21.18125,-4.76375 21.18125,-15.10125 0,0 1.21625,16.42 13.9875,16.42"
         style="fill:#ffffff;fill-opacity:1;fill-rule:nonzero;stroke:none"
         id="path4212"
         inkscape:connector-curvature="0" />
      <path
         inkscape:export-ydpi="90"
         inkscape:export-xdpi="90"
         d="m 297.47609,611.17418 c 0,0 21.18125,-4.76375 21.18125,-15.10125 0,0 1.21625,16.42 13.9875,16.42"
         style="fill:#ffffff;fill-opacity:1;fill-rule:nonzero;stroke:none"
         id="path4216"
         inkscape:connector-curvature="0" />
      <path
         inkscape:export-ydpi="90"
         inkscape:export-xdpi="90"
         d="m 318.15234,611.17418 c 0,0 21.18,-4.76375 21.18,-15.10125 0,0 1.21875,16.42 13.98875,16.42"
         style="fill:#ffffff;fill-opacity:1;fill-rule:nonzero;stroke:none"
         id="path4220"
         inkscape:connector-curvature="0" />
      <path
         inkscape:export-ydpi="90"
         inkscape:export-xdpi="90"
         d="m 338.52459,611.17418 c 0,0 21.18125,-4.76375 21.18125,-15.10125 0,0 1.21625,16.42 13.9875,16.42"
         style="fill:#ffffff;fill-opacity:1;fill-rule:nonzero;stroke:none"
         id="path4224"
         inkscape:connector-curvature="0" />
      <path
         inkscape:export-ydpi="90"
         inkscape:export-xdpi="90"
         d="m 357.07322,611.17418 c 0,0 21.18,-4.76375 21.18,-15.10125 0,0 1.2175,16.42 13.98875,16.42"
         style="fill:#ffffff;fill-opacity:1;fill-rule:nonzero;stroke:none"
         id="path4228"
         inkscape:connector-curvature="0" />
      <path
         inkscape:export-ydpi="90"
         inkscape:export-xdpi="90"
         d="m 377.74822,611.17418 c 0,0 21.18125,-4.76375 21.18125,-15.10125 0,0 1.2175,16.42 13.9875,16.42"
         style="fill:#ffffff;fill-opacity:1;fill-rule:nonzero;stroke:none"
         id="path4232"
         inkscape:connector-curvature="0" />
      <path
         inkscape:export-ydpi="90"
         inkscape:export-xdpi="90"
         d="m 334.16922,475.50156 c 0,8.91375 -7.22625,16.13875 -16.14,16.13875 -8.91375,0 -16.13875,-7.225 -16.13875,-16.13875 0,-8.91375 7.225,-16.14 16.13875,-16.14 8.91375,0 16.14,7.22625 16.14,16.14"
         style="fill:#ffffff;fill-opacity:1;fill-rule:nonzero;stroke:none"
         id="path4236"
         inkscape:connector-curvature="0" />
      <path
         inkscape:export-ydpi="90"
         inkscape:export-xdpi="90"
         d="m 331.83034,470.58943 c 0,0 -0.46875,28.06875 -24.795,14.97 0,0 20.1175,6.54875 24.795,-14.97"
         style="fill:#00aeb3;fill-opacity:1;fill-rule:nonzero;stroke:none"
         id="path4240"
         inkscape:connector-curvature="0" />
      <path
         inkscape:export-ydpi="90"
         inkscape:export-xdpi="90"
         d="m 284.11297,427.78431 c 0,3.74625 -3.0375,6.78375 -6.78375,6.78375 -3.745,0 -6.7825,-3.0375 -6.7825,-6.78375 0,-3.74625 3.0375,-6.7825 6.7825,-6.7825 3.74625,0 6.78375,3.03625 6.78375,6.7825"
         style="fill:#ffffff;fill-opacity:1;fill-rule:nonzero;stroke:none"
         id="path4244"
         inkscape:connector-curvature="0" />
      <path
         inkscape:export-ydpi="90"
         inkscape:export-xdpi="90"
         d="m 283.13034,425.72006 c 0,0 -0.19625,11.7975 -10.42125,6.29125 0,0 8.455,2.7525 10.42125,-6.29125"
         style="fill:#00aeb3;fill-opacity:1;fill-rule:nonzero;stroke:none"
         id="path4248"
         inkscape:connector-curvature="0" />
      <path
         inkscape:export-ydpi="90"
         inkscape:export-xdpi="90"
         d="m 333.70047,432.93081 c 0,6.58875 -5.34,11.92875 -11.92875,11.92875 -6.5875,0 -11.92875,-5.34 -11.92875,-11.92875 0,-6.58875 5.34125,-11.92875 11.92875,-11.92875 6.58875,0 11.92875,5.34 11.92875,11.92875"
         style="fill:#ffffff;fill-opacity:1;fill-rule:nonzero;stroke:none"
         id="path4252"
         inkscape:connector-curvature="0" />
      <path
         inkscape:export-ydpi="90"
         inkscape:export-xdpi="90"
         d="m 331.97197,429.29981 c 0,0 -0.34375,20.74625 -18.325,11.065 0,0 14.8675,4.84125 18.325,-11.065"
         style="fill:#00aeb3;fill-opacity:1;fill-rule:nonzero;stroke:none"
         id="path4256"
         inkscape:connector-curvature="0" />
      <path
         inkscape:export-ydpi="90"
         inkscape:export-xdpi="90"
         d="m 274.75634,345.91781 c 0,2.19625 -1.78,3.97625 -3.97625,3.97625 -2.19625,0 -3.975,-1.78 -3.975,-3.97625 0,-2.19625 1.77875,-3.97625 3.975,-3.97625 2.19625,0 3.97625,1.78 3.97625,3.97625"
         style="fill:#ffffff;fill-opacity:1;fill-rule:nonzero;stroke:none"
         id="path4260"
         inkscape:connector-curvature="0" />
      <path
         inkscape:export-ydpi="90"
         inkscape:export-xdpi="90"
         d="m 274.18022,344.70756 c 0,0 -0.115,6.915 -6.10875,3.68875 0,0 4.95625,1.6125 6.10875,-3.68875"
         style="fill:#00aeb3;fill-opacity:1;fill-rule:nonzero;stroke:none"
         id="path4264"
         inkscape:connector-curvature="0" />
      <text
         inkscape:export-ydpi="90"
         inkscape:export-xdpi="90"
         sodipodi:linespacing="125%"
         id="text7046"
         y="549.12781"
         x="167.92097"
         style="font-style:normal;font-weight:normal;font-size:40px;line-height:125%;font-family:sans-serif;letter-spacing:0px;word-spacing:0px;fill:#ffffff;fill-opacity:1;stroke:none;stroke-width:1px;stroke-linecap:butt;stroke-linejoin:miter;stroke-opacity:1"
         xml:space="preserve"><tspan
           style="font-size:45px"
           y="549.12781"
           x="167.92097"
           id="tspan7048"
           sodipodi:role="line">ScienceLab</tspan></text>
      <text
         inkscape:export-ydpi="90"
         inkscape:export-xdpi="90"
         sodipodi:linespacing="125%"
         id="text7046-5"
         y="577.00006"
         x="302.78912"
         style="font-style:normal;font-weight:normal;font-size:25px;line-height:125%;font-family:sans-serif;letter-spacing:0px;word-spacing:0px;fill:#ffffff;fill-opacity:1;stroke:none;stroke-width:1px;stroke-linecap:butt;stroke-linejoin:miter;stroke-opacity:1"
         xml:space="preserve"><tspan
           style="font-size:30px"
           y="577.00006"
           x="302.78912"
           id="tspan7048-3"
           sodipodi:role="line">Contact</tspan></text>
    </g>
  </g>
</svg>
